<svg xmlns="http://www.w3.org/2000/svg" viewBox="0 0 512 512">
  <path fill="#E23636" d="M237.35,7.93c15.75,21.1,10.1,41.35-5.42,60.05c-7.51,9.04-20.08,19.2-32.49,24.89
    c24.58-4.61,50.61-9.27,65.06,12.54c12.63,19.06,6.38,44.56-3.61,63.56c-5.76,10.95-13.67,20.55-23.1,28.81
    c-7.04,6.01-15.3,11.49-23.99,16.54c9.67,2.2,19.19,6.33,26.89,12.24c17.13,13.13,22.43,37.74,12.03,55.57
    c-9.6,16.43-27.23,23.5-44.13,27.83c-9.33,2.53-18.91,4.07-28.5,5.16c15.32,6.66,32.41,10.83,49.46,15.37
    c17.31,4.6,35.33,9.63,47.86,21.85c18.65,18.71,12.34,47.47-3.39,66.17c-8.44,10.03-22.19,20.28-36.89,21.19
    c17.2,3.1,33.82,7.86,39.93,23.17c4.62,11.58,4.02,27.83-0.43,39.3c-8.95,23.1-36.05,41.01-63.1,46.52
    c-27.62,5.61-56.53,2.53-84.49,1.96c-41.53-0.85-85.7-7.6-122.22-28.13c-20.89-11.73-35.5-33.82-34.05-57.97
    c1.86-31.08,27.38-48.99,54.49-58.53c-20.76-7.26-39.52-17.42-51.23-35.52c-13.76-21.26-10.75-49.01,2.61-69.58
    c14.48-22.25,36.72-36.63,58.77-50.8c-13.93-4.47-26.43-11.93-34.98-24.19c-8.04-11.54-11.91-25.95-11.09-39.7
    c1.07-17.76,12.69-36.98,29.17-45.29c16.97-8.53,36.11-8.28,54.77-9.26c-14.99-10.03-29.81-21.95-32.81-38.72
    c-2.36-13.2,0.63-28.32,8.57-39.15c9.23-12.59,25.55-21.2,40.97-24.59c13.31-2.93,33.63-4.36,45.13,4.2
    c-11.43-22.03-4.18-45.57,11.39-63.13c15.68-17.68,40.13-21.46,62.59-19.19C207.45,0.21,223.83,3.6,237.35,7.93z
    M171.5,86.9c-11.65,1.48-27.21,2.4-36.75,9.79c-8.08,6.25-7.41,15.66-2.57,23.34c6.29,9.99,17.15,16.59,27.18,22.06
    c17.87,9.76,37.18,16.11,57.18,19.11c13.63-10.54,26.82-22.11,33.6-37.43c7.13-16.13,3.39-25.92-7.46-39.31
    c-16.81-20.71-46.03-7.9-65.52-3.19c10.91-2.41,31.87-9.08,37.45,5.54c3.24,8.51-3.08,15.11-10.36,18.65
    c-10.01,4.85-21.97,6.98-32.77,8.97C170.54,103.81,169.67,94.25,171.5,86.9z M259.28,217.45
    c-21.99-14.03-48.43-18.89-74.56-19.46c-18.73-0.41-37.59,0.6-56.15,2.88c-9.26,1.14-18.46,2.82-27.48,5.27
    c-7.99,2.17-20.38,4.86-25.73,11.82c-7.19,9.34-0.31,19.93,8.04,25.33c8.97,5.79,19.64,7.96,29.71,10.8
    c22.74,6.41,46.32,9.72,69.87,9.67c15.48-0.03,30.86-2.04,45.74-6.18c11.97-3.33,30.66-8.2,38.09-18.4
    C274.21,230.31,269.22,223.77,259.28,217.45z M224.24,322.93c-4.29-10.32-14.16-17.94-23.96-22.93
    c-12.21-6.21-26.02-9.1-39.27-11.92c-14.38-3.05-29.15-5.96-43.41-9.66c-19.68,11.95-39.99,24.31-53.8,42.91
    c-9.31,12.54-18.39,30.39-9.76,44.88c8.15,13.68,26.21,19.71,40.64,23.71c33.96,9.4,70.58,7.4,103.05-6.96
    c9.85-4.36,19.86-10.14,26.44-18.85C232.29,352.63,230.79,338.39,224.24,322.93z M311.38,403.19
    c-3.63-1.89-7.09-3.63-10.86-4.73c-11.26-3.27-23.24-3.13-34.89-3.8c-26.11-1.5-52.19-4.98-77.83-9.71
    c-8.79,4.23-17.83,8.3-25.95,13.65c-7.86,5.18-15.39,11.24-20.8,19.08c-5.43,7.87-8.48,16.14-5.51,25.25
    c3.16,9.69,13.39,14.45,22.63,17.07c15.55,4.39,31.94,6.29,47.98,8.07c17.23,1.9,34.53,3.46,51.9,3.16
    c10.44-0.18,20.89-0.91,31.06-3.51c8.38-2.14,16.7-5.49,23.19-10.97c7.89-6.66,12.78-14.54,12.21-24.98
    C323.92,420.93,318.7,407.06,311.38,403.19z M410.22,252.7c11.7-10.62,18.42-24.11,13.53-39.81
    c-5.18-16.64-20.92-27.2-35.91-34.92c-13.82-7.12-28.58-12.01-43.35-16.55c-10.8-3.32-21.7-6.33-32.63-9.21
    c-5.56,8.82-12.06,17.02-19.96,24.01c-11.09,9.79-23.98,17.21-37.39,23.52c24.13,4.55,49.38,5.97,73.78,8.73
    c13.42,1.51,26.9,3.15,39.75,7.11c8.88,2.73,18.54,7.06,23.26,15.45c4.83,8.61,1.23,17.39-3.79,25.04
    c-6.38,9.75-15.19,17.56-24.08,24.95c-16.16,13.42-33.52,25.61-52.16,35.6c-0.19,0.28-0.45,0.51-0.78,0.69
    c12.19,4.6,24.29,9.44,36.15,14.83c22.7-12.98,43.59-27.77,61.16-47.83c2.43-2.78,4.75-5.64,6.92-8.63
    c-5.53,1.93-11.21,3.14-17.06,3.36c-3.66,0.14-7.37-0.17-10.98-0.95c-3.39-0.73-7.03-2.22-9.23-5.02
    c-3.16-4.01-0.93-9.47,2.75-12.27c6.47-4.9,14.4-6.57,22.42-7C406.2,252.22,408.24,252.4,410.22,252.7z"></path>
</svg> 